Coordinates
version=1
nRows=4
nColumns=63
inDegrees=yes

Units are S.I. units (second, meters, Newtons, ...)
If the header above contains a line with 'inDegrees', this indicates whether rotational values are in degrees (yes) or radians (no).

endheader
time	pelvis_tilt	pelvis_list	pelvis_rotation	pelvis_tx	pelvis_ty	pelvis_tz	hip_flexion_r	hip_adduction_r	hip_rotation_r	knee_angle_r	knee_angle_r_beta	ankle_angle_r	subtalar_angle_r	mtp_angle_r	hip_flexion_l	hip_adduction_l	hip_rotation_l	knee_angle_l	knee_angle_l_beta	ankle_angle_l	subtalar_angle_l	mtp_angle_l	L5_S1_Flex_Ext	L5_S1_Lat_Bending	L5_S1_axial_rotation	L4_L5_Flex_Ext	L4_L5_Lat_Bending	L4_L5_axial_rotation	L3_L4_Flex_Ext	L3_L4_Lat_Bending	L3_L4_axial_rotation	L2_L3_Flex_Ext	L2_L3_Lat_Bending	L2_L3_axial_rotation	L1_L2_Flex_Ext	L1_L2_Lat_Bending	L1_L2_axial_rotation	L1_T12_Flex_Ext	L1_T12_Lat_Bending	L1_T12_axial_rotation	Abs_r3	Abs_r2	Abs_r1	Abs_t1	Abs_t2	neck_flexion	neck_bending	neck_rotation	arm_flex_r	arm_add_r	arm_rot_r	elbow_flex_r	pro_sup_r	wrist_flex_r	wrist_dev_r	arm_flex_l	arm_add_l	arm_rot_l	elbow_flex_l	pro_sup_l	wrist_flex_l	wrist_dev_l
      6.60416667	    -12.65790743	      3.80183826	     99.97819402	      0.13254086	      0.61959198	      0.79555385	    -11.22696223	     -4.34407450	    -10.83057970	      5.66580798	      0.09888700	     27.07240158	     15.10867895	      0.00000000	     -8.98658851	      3.86775703	    -10.17496456	      9.33102126	      0.16285704	     20.61930781	     16.08033928	      0.00000000	     -1.30714299	     -1.77572196	     -8.33778416	     -2.42749525	     -2.36171020	     -8.85889567	     -2.14750522	     -4.31749037	     -8.85889567	     -1.49393372	     -4.31749037	     -7.29556114	     -1.21381298	     -3.62105222	     -6.77444963	     -0.74690150	     -2.75059331	     -6.25333812	     -9.33679167	    -20.08732193	    -46.37225416	      0.00000000	      0.00000000	      1.91315404	      0.15276135	     43.50882126	     46.29084251	     39.28981776	    186.36546427	      0.04356389	      0.50322203	    -69.92004189	    -24.63194216	    -30.73759584	    -16.57872212	    -13.00715732	     63.34120567	     89.16950069	    -21.12794900	     -8.76783387
      6.62500000	    -12.50750029	      3.08716283	     99.55972909	      0.13206258	      0.61900500	      0.79469198	    -10.38568893	     -4.45609949	    -10.74333992	      5.77295885	      0.10075714	     27.07163566	     15.48390126	      0.00000000	     -8.34232506	      3.98316707	     -9.99391003	      9.21864366	      0.16089568	     20.50340424	     15.54143648	      0.00000000	     -1.24489963	     -1.75520053	     -8.12937827	     -2.31190310	     -2.33441671	     -8.63746441	     -2.04524560	     -4.26759457	     -8.63746441	     -1.42279578	     -4.26759457	     -7.11320598	     -1.15601379	     -3.57920493	     -6.60511984	     -0.71133565	     -2.71880562	     -6.09703370	     -8.89219354	    -19.85517946	    -45.21316311	      0.00000000	      0.00000000	      2.03386539	      0.98399043	     43.10916648	     44.58316908	     37.43098127	    190.83857845	      0.04486346	      0.56354088	    -69.91500873	    -24.65114383	    -30.17552219	    -16.80587081	    -11.97241635	     63.19522107	     89.20333611	    -22.44104932	    -10.06165386
      6.64583333	    -12.38473966	      2.15151650	     99.53147983	      0.13115131	      0.61796434	      0.79327799	     -9.51383974	     -4.50589726	    -10.75773129	      5.67796282	      0.09909915	     26.99600074	     15.55161202	      0.00000000	     -7.45740545	      4.06076142	     -9.78372145	      9.16494025	      0.15995838	     20.53674361	     15.43003281	      0.00000000	     -1.16313719	     -1.73404240	     -7.89803908	     -2.16006207	     -2.30627639	     -8.39166652	     -1.91091809	     -4.21615068	     -8.39166652	     -1.32934949	     -4.21615068	     -6.91078419	     -1.08008919	     -3.53605926	     -6.41715675	     -0.66461659	     -2.68603167	     -5.92352931	     -8.30817263	    -19.61583441	    -43.92652395	      0.00000000	      0.00000000	      2.07692893	      2.02598177	     42.13922153	     42.84054514	     35.24975710	    194.63083270	      0.04712180	      0.66465400	    -69.90836473	    -24.66132708	    -29.51411671	    -17.29173830	    -10.84760175	     63.43382607	     89.21522508	    -22.31520607	    -10.15176012
      6.66666667	    -12.19471501	      1.15412949	     99.46895966	      0.12986249	      0.61651468	      0.79146113	     -8.58244739	     -4.51763412	    -10.71958762	      5.60634926	      0.09784925	     26.97029167	     15.61595583	      0.00000000	     -6.52218701	      4.11128249	     -9.67276327	      9.06954881	      0.15829349	     20.70780121	     15.26584571	      0.00000000	     -1.07876328	     -1.69972131	     -7.60110251	     -2.00337128	     -2.26062934	     -8.07617142	     -1.77230019	     -4.13270239	     -8.07617142	     -1.23291855	     -4.13270239	     -6.65096470	     -1.00173958	     -3.46607169	     -6.17589579	     -0.61640534	     -2.63286831	     -5.70082688	     -7.70549821	    -19.22758739	    -42.27505183	      0.00000000	      0.00000000	      2.41503703	      2.89943233	     40.61113196	     41.20611168	     32.83619077	    197.77261706	      0.05040640	      0.75600974	    -69.90010844	    -24.65176099	    -28.60975957	    -17.70455154	     -9.62254661	     63.73455140	     89.21006184	    -22.14078466	     -9.98323678
